# Blender v2.82 (sub 7) OBJ File: ''
# www.blender.org
mtllib thymio.mtl
o Cube_001_Cube.003
v -0.055000 -0.022092 0.055217
v -0.055000 -0.022092 -0.055217
v -0.055000 0.022092 0.055217
v -0.055000 0.022092 -0.055217
v 0.029997 -0.022092 -0.055217
v 0.029997 -0.022092 0.055217
v 0.029997 0.022092 -0.055217
v 0.029997 0.022092 0.055217
v 0.029997 -0.022092 -0.055217
v 0.055000 -0.022092 0.000000
v 0.033555 -0.022092 -0.054655
v 0.037041 -0.022092 -0.052981
v 0.040384 -0.022092 -0.050228
v 0.043515 -0.022092 -0.046452
v 0.046370 -0.022092 -0.041731
v 0.048893 -0.022092 -0.036160
v 0.051031 -0.022092 -0.029853
v 0.052741 -0.022092 -0.022938
v 0.053987 -0.022092 -0.015557
v 0.054745 -0.022092 -0.007858
v 0.055000 -0.022092 0.000000
v 0.029997 -0.022092 0.055217
v 0.054745 -0.022092 0.007858
v 0.053987 -0.022092 0.015557
v 0.052741 -0.022092 0.022938
v 0.051031 -0.022092 0.029853
v 0.048893 -0.022092 0.036160
v 0.046370 -0.022092 0.041731
v 0.043515 -0.022092 0.046452
v 0.040384 -0.022092 0.050228
v 0.037041 -0.022092 0.052981
v 0.033555 -0.022092 0.054655
v 0.055000 0.022092 0.000000
v 0.029997 0.022092 -0.055217
v 0.054745 0.022092 -0.007858
v 0.053987 0.022092 -0.015557
v 0.052741 0.022092 -0.022938
v 0.051031 0.022092 -0.029853
v 0.048893 0.022092 -0.036160
v 0.046370 0.022092 -0.041731
v 0.043515 0.022092 -0.046452
v 0.040384 0.022092 -0.050228
v 0.037041 0.022092 -0.052981
v 0.033555 0.022092 -0.054655
v 0.029997 0.022092 0.055217
v 0.055000 0.022092 0.000000
v 0.033555 0.022092 0.054655
v 0.037041 0.022092 0.052981
v 0.040384 0.022092 0.050228
v 0.043515 0.022092 0.046452
v 0.046370 0.022092 0.041731
v 0.048893 0.022092 0.036160
v 0.051031 0.022092 0.029853
v 0.052740 0.022092 0.022938
v 0.053987 0.022092 0.015557
v 0.054745 0.022092 0.007858
v -0.047996 -0.022092 -0.055217
v -0.047996 0.022092 -0.055217
v -0.047996 0.022092 0.055217
v -0.006500 -0.022092 -0.055217
v -0.006500 0.022092 -0.055217
v -0.006500 0.022092 0.055217
v -0.055000 0.014631 0.055217
v -0.055000 0.014631 -0.055217
v 0.029997 0.014631 -0.055217
v 0.033555 0.014631 -0.054655
v 0.037041 0.014631 -0.052981
v 0.040384 0.014631 -0.050228
v 0.043515 0.014631 -0.046452
v 0.046370 0.014631 -0.041731
v 0.048893 0.014631 -0.036160
v 0.051031 0.014631 -0.029853
v 0.052741 0.014631 -0.022938
v 0.053987 0.014631 -0.015557
v 0.054745 0.014631 -0.007858
v 0.055000 0.014631 0.000000
v 0.055000 0.014631 0.000000
v 0.054745 0.014631 0.007858
v 0.053987 0.014631 0.015557
v 0.052740 0.014631 0.022938
v 0.051031 0.014631 0.029853
v 0.048893 0.014631 0.036160
v 0.046370 0.014631 0.041731
v 0.043515 0.014631 0.046452
v 0.040384 0.014631 0.050228
v 0.037041 0.014631 0.052981
v 0.033555 0.014631 0.054655
v 0.029997 0.014631 0.055217
v -0.006500 -0.022092 -0.038784
v -0.047996 -0.022092 -0.038784
v 0.033555 -0.003731 -0.054655
v 0.037041 -0.003731 -0.052981
v 0.040384 -0.003731 -0.050228
v 0.043515 -0.003731 -0.046452
v 0.046370 -0.003731 -0.041731
v 0.048893 -0.003731 -0.036160
v 0.051031 -0.003731 -0.029853
v 0.052741 -0.003731 -0.022938
v 0.053987 -0.003731 -0.015557
v 0.054745 -0.003731 -0.007858
v 0.055000 -0.003731 0.000000
v 0.054745 -0.003731 0.007858
v 0.053987 -0.003731 0.015557
v 0.052741 -0.003731 0.022938
v 0.051031 -0.003731 0.029853
v 0.048893 -0.003731 0.036160
v 0.046370 -0.003731 0.041731
v 0.043515 -0.003731 0.046452
v 0.040384 -0.003731 0.050228
v 0.037041 -0.003731 0.052981
v 0.033555 -0.003731 0.054655
v 0.029997 -0.003731 0.055217
v -0.055000 -0.003731 0.055217
v -0.055000 -0.003731 -0.055217
v 0.029997 -0.003731 -0.055217
v 0.029997 -0.003731 -0.055217
v 0.055000 -0.003731 0.000000
v -0.047996 -0.003731 -0.055217
v -0.006500 -0.003731 -0.055217
v -0.047996 -0.003731 -0.038784
v -0.006500 -0.003731 -0.038784
v -0.047996 -0.003731 -0.055217
v -0.030592 0.014035 -0.055217
v -0.036303 0.013171 -0.055217
v -0.041246 0.011628 -0.055217
v -0.044712 0.009443 -0.055217
v -0.046659 0.006914 -0.055217
v -0.047569 0.004276 -0.055217
v -0.047909 0.001604 -0.055217
v -0.047990 -0.001070 -0.055217
v -0.006500 -0.003731 -0.055217
v -0.006506 -0.001064 -0.055217
v -0.006588 0.001614 -0.055217
v -0.006929 0.004284 -0.055217
v -0.007845 0.006929 -0.055217
v -0.009799 0.009457 -0.055217
v -0.013286 0.011644 -0.055217
v -0.018224 0.013177 -0.055217
v -0.023940 0.014039 -0.055217
v -0.047996 -0.003731 -0.038784
v -0.047990 -0.001064 -0.038784
v -0.047909 0.001614 -0.038784
v -0.047567 0.004284 -0.038784
v -0.046651 0.006929 -0.038784
v -0.044697 0.009457 -0.038784
v -0.041210 0.011644 -0.038784
v -0.036272 0.013177 -0.038784
v -0.030556 0.014039 -0.038784
v -0.006500 -0.003731 -0.038784
v -0.023905 0.014035 -0.038784
v -0.018193 0.013171 -0.038784
v -0.013250 0.011628 -0.038784
v -0.009784 0.009443 -0.038784
v -0.007837 0.006914 -0.038784
v -0.006927 0.004276 -0.038784
v -0.006587 0.001604 -0.038784
v -0.006506 -0.001070 -0.038784
v -0.006500 -0.022092 0.054869
v -0.047996 -0.022092 0.054869
v -0.047996 -0.022092 0.038435
v -0.006500 -0.022092 0.038435
v -0.006500 -0.003731 0.054869
v -0.047996 -0.003731 0.054869
v -0.006500 -0.003731 0.038435
v -0.047996 -0.003731 0.038435
v -0.006500 -0.003731 0.054869
v -0.023905 0.014035 0.054869
v -0.018193 0.013171 0.054869
v -0.013250 0.011628 0.054869
v -0.009784 0.009443 0.054869
v -0.007837 0.006914 0.054869
v -0.006928 0.004276 0.054869
v -0.006587 0.001604 0.054869
v -0.006506 -0.001070 0.054869
v -0.047996 -0.003731 0.054869
v -0.047990 -0.001064 0.054869
v -0.047909 0.001614 0.054869
v -0.047567 0.004284 0.054869
v -0.046651 0.006929 0.054869
v -0.044697 0.009457 0.054869
v -0.041210 0.011644 0.054869
v -0.036272 0.013177 0.054869
v -0.030556 0.014039 0.054869
v -0.006500 -0.003731 0.038435
v -0.006506 -0.001064 0.038435
v -0.006588 0.001614 0.038435
v -0.006929 0.004284 0.038435
v -0.007845 0.006929 0.038435
v -0.009799 0.009457 0.038435
v -0.013286 0.011644 0.038435
v -0.018224 0.013177 0.038435
v -0.023940 0.014039 0.038435
v -0.047996 -0.003731 0.038435
v -0.030592 0.014035 0.038435
v -0.036303 0.013171 0.038435
v -0.041246 0.011628 0.038435
v -0.044712 0.009443 0.038435
v -0.046659 0.006914 0.038435
v -0.047569 0.004276 0.038435
v -0.047909 0.001604 0.038435
v -0.047990 -0.001070 0.038435
vn 0.0000 1.0000 0.0000
vn -1.0000 -0.0000 -0.0000
vn 0.0000 0.0000 -1.0000
vn 0.1560 0.0000 -0.9878
vn 0.4330 -0.0000 -0.9014
vn 0.6358 -0.0000 -0.7719
vn 0.7698 0.0000 -0.6383
vn 0.8556 0.0000 -0.5176
vn 0.9110 -0.0000 -0.4125
vn 0.9471 -0.0000 -0.3210
vn 0.9708 -0.0000 -0.2400
vn 0.9860 0.0000 -0.1665
vn 0.9952 0.0000 -0.0980
vn 0.9995 0.0000 -0.0324
vn 0.9995 0.0000 0.0324
vn 0.9952 0.0000 0.0980
vn 0.9860 0.0000 0.1665
vn 0.9708 0.0000 0.2400
vn 0.9471 0.0000 0.3210
vn 0.9110 0.0000 0.4125
vn 0.8556 0.0000 0.5176
vn 0.7698 0.0000 0.6383
vn 0.6358 0.0000 0.7719
vn 0.4330 -0.0000 0.9014
vn 0.1560 -0.0000 0.9878
vn 0.0000 -1.0000 0.0000
vn 1.0000 -0.0000 0.0000
vn 0.1497 -0.9887 0.0001
vn 0.2979 -0.9546 0.0003
vn 0.5333 -0.8459 0.0002
vn 0.7924 -0.6100 0.0002
vn 0.9453 -0.3261 0.0001
vn 0.9920 -0.1264 0.0000
vn 0.9995 -0.0303 0.0000
vn 1.0000 -0.0022 -0.0000
vn -1.0000 -0.0022 0.0000
vn -0.9995 -0.0305 0.0000
vn -0.9919 -0.1269 0.0000
vn -0.9449 -0.3272 0.0002
vn -0.7911 -0.6116 0.0002
vn -0.5314 -0.8471 0.0003
vn -0.2966 -0.9550 0.0002
vn -0.1490 -0.9888 0.0001
vn 0.0005 -1.0000 0.0002
vn -0.0000 0.0000 1.0000
vn -0.1497 -0.9887 -0.0001
vn -0.2979 -0.9546 -0.0003
vn -0.5333 -0.8459 -0.0002
vn -0.7924 -0.6100 -0.0002
vn -0.9453 -0.3261 -0.0001
vn -0.9920 -0.1264 -0.0000
vn -0.9995 -0.0303 -0.0000
vn 0.9995 -0.0305 -0.0000
vn 0.9919 -0.1269 -0.0000
vn 0.9449 -0.3272 -0.0002
vn 0.7911 -0.6116 -0.0002
vn 0.5314 -0.8471 -0.0003
vn 0.2966 -0.9550 -0.0002
vn 0.1490 -0.9888 -0.0001
vn -0.0005 -1.0000 -0.0002
vn 0.0497 -0.0001 0.9988
vn -0.0097 -0.0012 1.0000
vn -0.0000 -0.0432 0.9991
vn 0.7900 0.0000 -0.6130
vn 0.0497 0.0000 0.9988
vn 0.0173 -0.0163 0.9997
vn 0.0468 0.0000 0.9989
vn 0.0502 -0.0015 0.9987
vn 0.0149 -0.0479 0.9987
vn 0.0188 -0.0299 0.9994
vn 0.0543 -0.0069 0.9985
vn 0.0243 -0.0188 0.9995
vn 0.0316 -0.0109 0.9994
vn -0.0094 -0.0000 1.0000
vn -0.0086 -0.0277 0.9996
vn -0.0149 -0.0237 0.9996
vn -0.0053 -0.0262 0.9996
vn -0.0095 -0.0000 1.0000
vn -0.0096 -0.0003 1.0000
vn -0.0080 -0.0061 0.9999
vn -0.0086 -0.0030 1.0000
vn 0.0049 -0.0326 0.9995
vn -0.0049 -0.0326 0.9995
usemtl Material.001
s off
f 58//1 3//1 59//1
f 63//2 4//2 64//2
f 118//3 2//3 114//3
f 8//1 53//1 54//1
f 34//4 66//4 65//4
f 44//5 67//5 66//5
f 43//6 68//6 67//6
f 42//7 69//7 68//7
f 41//8 70//8 69//8
f 40//9 71//9 70//9
f 39//10 72//10 71//10
f 38//11 73//11 72//11
f 37//12 74//12 73//12
f 36//13 75//13 74//13
f 35//14 76//14 75//14
f 46//15 78//15 77//15
f 56//16 79//16 78//16
f 55//17 80//17 79//17
f 54//18 81//18 80//18
f 53//19 82//19 81//19
f 52//20 83//20 82//20
f 51//21 84//21 83//21
f 50//22 85//22 84//22
f 49//23 86//23 85//23
f 48//24 87//24 86//24
f 47//25 88//25 87//25
f 22//26 5//26 21//26
f 58//1 62//1 61//1
f 61//1 8//1 7//1
f 5//3 119//3 115//3
f 87//25 112//25 111//25
f 86//24 111//24 110//24
f 85//23 110//23 109//23
f 84//22 109//22 108//22
f 83//21 108//21 107//21
f 82//20 107//20 106//20
f 81//19 106//19 105//19
f 80//18 105//18 104//18
f 79//17 104//17 103//17
f 78//16 103//16 102//16
f 77//15 102//15 117//15
f 75//14 101//14 100//14
f 74//13 100//13 99//13
f 73//12 99//12 98//12
f 72//11 98//11 97//11
f 71//10 97//10 96//10
f 70//9 96//9 95//9
f 69//8 95//8 94//8
f 68//7 94//7 93//7
f 67//6 93//6 92//6
f 66//5 92//5 91//5
f 65//4 91//4 116//4
f 113//2 64//2 114//2
f 89//3 120//3 121//3
f 60//2 121//2 119//2
f 57//27 120//27 90//27
f 113//2 2//2 1//2
f 9//4 91//4 11//4
f 91//5 12//5 11//5
f 92//6 13//6 12//6
f 93//7 14//7 13//7
f 94//8 15//8 14//8
f 95//9 16//9 15//9
f 96//10 17//10 16//10
f 97//11 18//11 17//11
f 98//12 19//12 18//12
f 99//13 20//13 19//13
f 100//14 10//14 20//14
f 117//15 23//15 21//15
f 102//16 24//16 23//16
f 103//17 25//17 24//17
f 104//18 26//18 25//18
f 105//19 27//19 26//19
f 106//20 28//20 27//20
f 107//21 29//21 28//21
f 108//22 30//22 29//22
f 109//23 31//23 30//23
f 110//24 32//24 31//24
f 111//25 22//25 32//25
f 123//28 147//28 124//28
f 124//29 146//29 125//29
f 125//30 145//30 126//30
f 126//31 144//31 127//31
f 127//32 143//32 128//32
f 128//33 142//33 129//33
f 129//34 141//34 130//34
f 130//35 140//35 122//35
f 131//36 157//36 132//36
f 132//37 156//37 133//37
f 133//38 155//38 134//38
f 134//39 154//39 135//39
f 135//40 153//40 136//40
f 136//41 152//41 137//41
f 137//42 151//42 138//42
f 138//43 150//43 139//43
f 139//44 148//44 123//44
f 151//3 145//3 147//3
f 160//45 164//45 165//45
f 159//27 165//27 163//27
f 158//2 164//2 161//2
f 167//46 191//46 168//46
f 168//47 190//47 169//47
f 169//48 189//48 170//48
f 170//49 188//49 171//49
f 171//50 187//50 172//50
f 172//51 186//51 173//51
f 173//52 185//52 174//52
f 174//36 184//36 166//36
f 175//35 201//35 176//35
f 176//53 200//53 177//53
f 177//54 199//54 178//54
f 178//55 198//55 179//55
f 179//56 197//56 180//56
f 180//57 196//57 181//57
f 181//58 195//58 182//58
f 182//59 194//59 183//59
f 183//60 192//60 167//60
f 195//45 189//45 191//45
f 89//26 5//26 161//26
f 115//3 134//3 135//3
f 128//3 129//3 114//3
f 123//3 124//3 58//3
f 113//61 163//61 176//61
f 172//62 173//62 112//62
f 183//63 167//63 62//63
f 58//1 4//1 3//1
f 63//2 3//2 4//2
f 118//3 57//3 2//3
f 46//45 33//45 35//45
f 35//1 36//1 34//1
f 36//1 37//1 34//1
f 37//1 38//1 34//1
f 38//1 39//1 34//1
f 39//1 40//1 34//1
f 40//1 41//1 34//1
f 41//1 42//1 34//1
f 42//1 43//1 34//1
f 43//1 44//1 34//1
f 34//1 7//1 8//1
f 45//1 47//1 48//1
f 34//1 8//1 46//1
f 45//1 48//1 49//1
f 45//1 49//1 50//1
f 45//1 50//1 51//1
f 35//1 34//1 46//1
f 45//1 51//1 52//1
f 45//1 52//1 53//1
f 8//45 45//45 53//45
f 56//1 46//1 8//1
f 54//1 55//1 8//1
f 55//1 56//1 8//1
f 34//4 44//4 66//4
f 44//5 43//5 67//5
f 43//6 42//6 68//6
f 42//7 41//7 69//7
f 41//8 40//8 70//8
f 40//9 39//9 71//9
f 39//10 38//10 72//10
f 38//11 37//11 73//11
f 37//12 36//12 74//12
f 36//13 35//13 75//13
f 35//14 33//14 76//14
f 46//15 56//15 78//15
f 56//16 55//16 79//16
f 55//17 54//17 80//17
f 54//18 53//18 81//18
f 53//19 52//19 82//19
f 52//20 51//20 83//20
f 51//21 50//21 84//21
f 50//22 49//22 85//22
f 49//23 48//23 86//23
f 48//24 47//24 87//24
f 47//25 45//25 88//25
f 5//45 9//45 11//45
f 11//26 12//26 5//26
f 12//26 13//26 5//26
f 13//26 14//26 5//26
f 14//26 15//26 5//26
f 15//26 16//26 5//26
f 16//26 17//26 5//26
f 17//26 18//26 5//26
f 18//26 19//26 5//26
f 20//45 10//45 21//45
f 21//26 23//26 22//26
f 23//26 24//26 22//26
f 24//26 25//26 22//26
f 25//26 26//26 22//26
f 26//26 27//26 22//26
f 27//26 28//26 22//26
f 28//26 29//26 22//26
f 29//26 30//26 22//26
f 30//26 31//26 22//26
f 31//26 32//26 22//26
f 22//45 6//45 5//45
f 19//26 20//26 5//26
f 20//26 21//26 5//26
f 58//1 59//1 62//1
f 61//1 62//1 8//1
f 5//3 60//3 119//3
f 87//25 88//25 112//25
f 86//24 87//24 111//24
f 85//23 86//23 110//23
f 84//22 85//22 109//22
f 83//21 84//21 108//21
f 82//20 83//20 107//20
f 81//19 82//19 106//19
f 80//18 81//18 105//18
f 79//17 80//17 104//17
f 78//16 79//16 103//16
f 77//15 78//15 102//15
f 75//14 76//14 101//14
f 74//13 75//13 100//13
f 73//12 74//12 99//12
f 72//11 73//11 98//11
f 71//10 72//10 97//10
f 70//9 71//9 96//9
f 69//8 70//8 95//8
f 68//7 69//7 94//7
f 67//6 68//6 93//6
f 66//5 67//5 92//5
f 65//4 66//4 91//4
f 113//2 63//2 64//2
f 89//3 90//3 120//3
f 60//2 89//2 121//2
f 57//27 118//27 120//27
f 113//2 114//2 2//2
f 9//4 116//4 91//4
f 91//5 92//5 12//5
f 92//6 93//6 13//6
f 93//7 94//7 14//7
f 94//8 95//8 15//8
f 95//9 96//9 16//9
f 96//10 97//10 17//10
f 97//11 98//11 18//11
f 98//12 99//12 19//12
f 99//13 100//13 20//13
f 100//14 101//14 10//14
f 117//15 102//15 23//15
f 102//16 103//16 24//16
f 103//17 104//17 25//17
f 104//18 105//18 26//18
f 105//19 106//19 27//19
f 106//20 107//20 28//20
f 107//21 108//21 29//21
f 108//22 109//22 30//22
f 109//23 110//23 31//23
f 110//24 111//24 32//24
f 111//25 112//25 22//25
f 123//59 148//59 147//59
f 124//58 147//58 146//58
f 125//57 146//57 145//57
f 126//56 145//56 144//56
f 127//55 144//55 143//55
f 128//54 143//54 142//54
f 129//53 142//53 141//53
f 130//35 141//35 140//35
f 131//36 149//36 157//36
f 132//52 157//52 156//52
f 133//51 156//51 155//51
f 134//50 155//50 154//50
f 135//49 154//49 153//49
f 136//48 153//48 152//48
f 137//47 152//47 151//47
f 138//46 151//46 150//46
f 139//60 150//60 148//60
f 149//45 121//45 120//45
f 120//45 140//45 141//45
f 157//3 149//3 120//3
f 155//3 156//3 142//3
f 156//3 157//3 141//3
f 142//3 156//3 141//3
f 153//3 154//3 144//3
f 154//3 155//3 143//3
f 153//3 145//3 151//3
f 151//3 152//3 153//3
f 148//3 150//3 147//3
f 150//3 151//3 147//3
f 146//3 147//3 145//3
f 144//3 145//3 153//3
f 142//3 143//3 155//3
f 143//3 144//3 154//3
f 120//3 141//3 157//3
f 160//45 161//45 164//45
f 159//27 160//27 165//27
f 158//2 162//2 164//2
f 167//43 192//43 191//43
f 168//42 191//42 190//42
f 169//41 190//41 189//41
f 170//40 189//40 188//40
f 171//39 188//39 187//39
f 172//38 187//38 186//38
f 173//37 186//37 185//37
f 174//36 185//36 184//36
f 175//35 193//35 201//35
f 176//34 201//34 200//34
f 177//33 200//33 199//33
f 178//32 199//32 198//32
f 179//31 198//31 197//31
f 180//30 197//30 196//30
f 181//29 196//29 195//29
f 182//28 195//28 194//28
f 183//44 194//44 192//44
f 193//45 165//45 164//45
f 164//45 184//45 185//45
f 201//45 193//45 164//45
f 199//45 200//45 186//45
f 200//45 201//45 185//45
f 186//45 200//45 185//45
f 197//45 198//45 188//45
f 198//45 199//45 187//45
f 197//45 189//45 195//45
f 195//45 196//45 197//45
f 192//45 194//45 191//45
f 194//45 195//45 191//45
f 190//45 191//45 189//45
f 188//45 189//45 197//45
f 186//45 187//45 199//45
f 187//45 188//45 198//45
f 164//45 185//45 201//45
f 1//26 2//26 160//26
f 2//26 57//26 90//26
f 2//26 90//26 160//26
f 160//26 159//26 1//26
f 6//26 158//26 161//26
f 5//26 6//26 161//26
f 161//26 160//26 90//26
f 89//26 60//26 5//26
f 161//26 90//26 89//26
f 34//64 65//64 115//64
f 65//3 116//3 115//3
f 115//45 119//45 131//45
f 137//3 61//3 136//3
f 61//3 7//3 136//3
f 7//3 34//3 115//3
f 115//3 131//3 132//3
f 115//3 132//3 133//3
f 7//3 115//3 135//3
f 136//3 7//3 135//3
f 115//3 133//3 134//3
f 114//3 64//3 128//3
f 64//3 4//3 58//3
f 126//3 64//3 125//3
f 58//3 125//3 64//3
f 122//45 118//45 114//45
f 130//3 122//3 114//3
f 64//3 126//3 127//3
f 64//3 127//3 128//3
f 129//3 130//3 114//3
f 61//3 137//3 138//3
f 61//3 138//3 139//3
f 124//3 125//3 58//3
f 61//3 139//3 58//3
f 139//3 123//3 58//3
f 59//45 3//45 63//45
f 113//65 1//65 159//65
f 59//66 63//66 182//66
f 63//67 113//67 178//67
f 177//68 113//68 176//68
f 181//69 182//69 63//69
f 180//70 181//70 63//70
f 113//71 177//71 178//71
f 113//65 159//65 163//65
f 179//72 180//72 63//72
f 178//73 179//73 63//73
f 165//45 193//45 175//45
f 163//45 165//45 175//45
f 163//45 175//45 176//45
f 112//74 88//74 172//74
f 88//45 45//45 62//45
f 45//45 8//45 62//45
f 62//75 168//75 169//75
f 62//76 169//76 170//76
f 88//77 62//77 170//77
f 112//78 174//78 162//78
f 158//45 6//45 22//45
f 22//78 112//78 162//78
f 174//79 112//79 173//79
f 170//80 171//80 88//80
f 171//81 172//81 88//81
f 158//78 22//78 162//78
f 174//45 166//45 162//45
f 62//63 59//63 183//63
f 59//82 182//82 183//82
f 167//83 168//83 62//83
